<?xml version="1.0" encoding="utf-8"?>
<!-- Generator: Adobe Illustrator 24.0.0, SVG Export Plug-In . SVG Version: 6.00 Build 0)  -->
<svg version="1.1" id="Layer_1" xmlns="http://www.w3.org/2000/svg" xmlns:xlink="http://www.w3.org/1999/xlink" x="0px" y="0px"
	 viewBox="0 0 185.03 196.37" style="enable-background:new 0 0 185.03 196.37;" xml:space="preserve">
<style type="text/css">
	.st0{fill:#3DC12F;}
	.st1{fill:#FFFFFF;}
	.st2{enable-background:new    ;}
</style>
<path class="st0" d="M146.91,191.65H38.13c-20.85,0-37.82-16.97-37.82-37.82V45.06c0-20.85,16.97-37.82,37.82-37.82h108.78
	c20.85,0,37.82,16.97,37.82,37.82v108.78C184.73,174.69,167.76,191.65,146.91,191.65z"/>
<g>
	<g>
		<path class="st1" d="M71.47,68c-2.11,0-3.83,1.71-3.83,3.83v15.31c0,2.11,1.71,3.83,3.83,3.83c2.11,0,3.83-1.71,3.83-3.83V71.83
			C75.29,69.71,73.58,68,71.47,68z"/>
		<path class="st1" d="M113.57,68c-2.11,0-3.83,1.71-3.83,3.83v15.31c0,2.11,1.71,3.83,3.83,3.83c2.11,0,3.83-1.71,3.83-3.83V71.83
			C117.4,69.71,115.68,68,113.57,68z"/>
		<path class="st1" d="M77.21,98.62h3.83v9.57c0,2.11,1.71,3.83,3.83,3.83s3.83-1.71,3.83-3.83v-9.57h7.66v9.57
			c0,2.11,1.71,3.83,3.83,3.83s3.83-1.71,3.83-3.83v-9.57h3.83v-28.7H77.21V98.62z"/>
		<path class="st1" d="M101.56,55.66l1.97-3.4c0.27-0.46,0.11-1.04-0.35-1.31s-1.04-0.11-1.31,0.35l-1.92,3.32
			c-2.2-1.22-4.73-1.93-7.43-1.93s-5.23,0.7-7.43,1.93l-1.92-3.32c-0.27-0.46-0.85-0.61-1.31-0.35c-0.46,0.26-0.61,0.85-0.35,1.31
			l1.97,3.41c-3.8,2.79-6.27,7.27-6.27,12.34h30.62C107.83,62.93,105.35,58.45,101.56,55.66z M86.78,62.26
			c-1.06,0-1.91-0.86-1.91-1.91s0.86-1.91,1.91-1.91c1.06,0,1.91,0.86,1.91,1.91S87.83,62.26,86.78,62.26z M98.26,62.26
			c-1.06,0-1.91-0.86-1.91-1.91s0.86-1.91,1.91-1.91c1.06,0,1.91,0.86,1.91,1.91S99.32,62.26,98.26,62.26z"/>
	</g>
	<g class="st2">
		<path class="st1" d="M39.99,126.88v13.69h-4.02v-2.03c-0.41,0.7-1,1.25-1.75,1.65s-1.61,0.59-2.57,0.59
			c-1.19,0-2.24-0.29-3.15-0.86c-0.91-0.58-1.62-1.4-2.13-2.47s-0.77-2.31-0.77-3.71s0.26-2.66,0.77-3.75s1.23-1.95,2.15-2.55
			c0.92-0.6,1.96-0.9,3.13-0.9c0.95,0,1.81,0.21,2.57,0.62s1.34,0.97,1.75,1.67v-1.94H39.99z M35.16,136.65
			c0.54-0.68,0.81-1.67,0.81-2.97s-0.27-2.29-0.81-2.98c-0.54-0.69-1.31-1.04-2.32-1.04c-1.01,0-1.79,0.36-2.35,1.08
			c-0.56,0.72-0.84,1.72-0.84,3c0,1.28,0.27,2.25,0.82,2.93c0.55,0.67,1.34,1.01,2.36,1.01C33.84,137.68,34.62,137.33,35.16,136.65z
			"/>
		<path class="st1" d="M56.59,132.28v8.29h-4.08v-8.1c0-0.95-0.18-1.65-0.53-2.09c-0.35-0.44-0.9-0.66-1.66-0.66
			c-0.9,0-1.62,0.29-2.16,0.86c-0.54,0.58-0.81,1.35-0.81,2.32v7.67h-4.08v-9.77c0-1.46-0.07-2.76-0.22-3.92h3.83l0.27,2.16
			c0.49-0.81,1.12-1.43,1.9-1.86c0.78-0.43,1.67-0.65,2.66-0.65C54.97,126.53,56.59,128.44,56.59,132.28z"/>
		<path class="st1" d="M73.55,120.69v19.87h-4.02v-2.03c-0.41,0.7-1,1.25-1.75,1.65s-1.61,0.59-2.57,0.59c-1.17,0-2.21-0.3-3.13-0.9
			c-0.92-0.6-1.63-1.45-2.15-2.54s-0.77-2.33-0.77-3.74s0.26-2.64,0.77-3.71c0.51-1.07,1.22-1.9,2.13-2.48s1.96-0.88,3.15-0.88
			c0.92,0,1.75,0.19,2.51,0.58c0.76,0.39,1.34,0.92,1.76,1.61v-8.02H73.55z M68.72,136.64c0.54-0.69,0.81-1.69,0.81-2.98
			c0-1.28-0.27-2.26-0.82-2.96c-0.55-0.69-1.32-1.04-2.31-1.04c-1.01,0-1.79,0.34-2.35,1.03c-0.56,0.68-0.84,1.66-0.84,2.92
			c0,1.3,0.28,2.3,0.84,3.01s1.34,1.07,2.35,1.07C67.4,137.68,68.18,137.33,68.72,136.64z"/>
		<path class="st1" d="M86.27,126.82l-0.03,3.73c-0.67-0.31-1.33-0.46-2-0.46c-1.08,0-1.9,0.29-2.47,0.88s-0.85,1.4-0.85,2.44v7.16
			h-4.08v-9.77c0-1.46-0.07-2.76-0.22-3.92h3.83l0.27,2.35c0.34-0.86,0.88-1.53,1.61-1.98c0.73-0.46,1.55-0.69,2.47-0.69
			C85.38,126.55,85.87,126.64,86.27,126.82z"/>
		<path class="st1" d="M90.36,139.92c-1.09-0.58-1.93-1.4-2.51-2.48c-0.59-1.08-0.88-2.34-0.88-3.78c0-1.44,0.29-2.7,0.88-3.78
			c0.58-1.08,1.42-1.91,2.51-2.48c1.09-0.58,2.36-0.86,3.82-0.86c1.44,0,2.7,0.29,3.78,0.86s1.91,1.4,2.5,2.48s0.88,2.34,0.88,3.78
			c0,1.44-0.29,2.7-0.88,3.78s-1.42,1.91-2.5,2.48c-1.08,0.58-2.34,0.86-3.78,0.86C92.72,140.78,91.45,140.49,90.36,139.92z
			 M96.49,136.68c0.53-0.67,0.8-1.67,0.8-3.02c0-1.33-0.27-2.33-0.8-3.01c-0.53-0.67-1.3-1.01-2.31-1.01
			c-1.03,0-1.81,0.34-2.35,1.01c-0.54,0.68-0.81,1.68-0.81,3.01c0,2.68,1.05,4.02,3.16,4.02C95.19,137.68,95.96,137.34,96.49,136.68
			z"/>
		<path class="st1" d="M103.82,120.45h4.35v3.83h-4.35V120.45z M103.95,140.57v-13.69h4.08v13.69H103.95z"/>
		<path class="st1" d="M125.06,120.69v19.87h-4.02v-2.03c-0.41,0.7-1,1.25-1.75,1.65s-1.61,0.59-2.57,0.59
			c-1.17,0-2.21-0.3-3.13-0.9c-0.92-0.6-1.63-1.45-2.15-2.54s-0.77-2.33-0.77-3.74s0.26-2.64,0.77-3.71
			c0.51-1.07,1.22-1.9,2.13-2.48s1.96-0.88,3.15-0.88c0.92,0,1.75,0.19,2.51,0.58c0.76,0.39,1.34,0.92,1.76,1.61v-8.02H125.06z
			 M120.23,136.64c0.54-0.69,0.81-1.69,0.81-2.98c0-1.28-0.27-2.26-0.82-2.96c-0.55-0.69-1.32-1.04-2.31-1.04
			c-1.01,0-1.79,0.34-2.35,1.03c-0.56,0.68-0.84,1.66-0.84,2.92c0,1.3,0.28,2.3,0.84,3.01s1.34,1.07,2.35,1.07
			C118.92,137.68,119.69,137.33,120.23,136.64z"/>
		<path class="st1" d="M141.08,129.93v5.32c0,0.76,0.2,1.31,0.59,1.66c0.4,0.35,0.91,0.53,1.54,0.53c0.4,0,0.85-0.06,1.35-0.19v3.16
			c-0.65,0.25-1.43,0.38-2.35,0.38c-1.69,0-2.98-0.48-3.88-1.43c-0.89-0.95-1.34-2.29-1.34-4.02v-5.4h-2.59v-3.05H137v-3.21
			l4.08-1.32v4.54h3.48v3.05H141.08z"/>
		<path class="st1" d="M156.38,126.9h4.02l-6.02,13.66h-3.46l-5.94-13.66h4.27l3.51,8.86L156.38,126.9z"/>
	</g>
</g>
</svg>
