<?xml version="1.0" encoding="utf-8"?>
<!-- Generator: Adobe Illustrator 24.0.0, SVG Export Plug-In . SVG Version: 6.00 Build 0)  -->
<svg version="1.1" id="Layer_1" xmlns="http://www.w3.org/2000/svg" xmlns:xlink="http://www.w3.org/1999/xlink" x="0px" y="0px"
	 viewBox="0 0 185.03 196.37" style="enable-background:new 0 0 185.03 196.37;" xml:space="preserve">
<style type="text/css">
	.st0{fill:#DD0330;}
</style>
<g>
	<g>
		<path class="st0" d="M0.04,37.03c-0.34-2.96,1.43-5.77,4.25-6.77c13.93-4.96,27.67-9.86,41.42-14.73
			C59.8,10.53,73.85,5.44,88.03,0.71c2.59-0.86,5.98-0.98,8.52-0.1c28.09,9.72,56.06,19.79,84.14,29.52c4,1.39,4.69,3.16,4.2,7.16
			c-3.71,30.16-7.1,60.36-10.61,90.54c-0.9,7.71-1.7,15.43-2.86,23.1c-0.25,1.65-1.47,3.77-2.87,4.55
			c-24.37,13.58-48.81,27.02-73.34,40.31c-1.5,0.81-4.24,0.75-5.76-0.08c-24.38-13.22-48.68-26.58-72.89-40.09
			c-1.53-0.85-2.95-3.12-3.16-4.88C10,122.87,6.79,94.98,3.54,67.1C2.37,57.09,1.21,47.08,0.05,37.08
			C0.05,37.06,0.04,37.04,0.04,37.03z M33.65,150.94c6.95,0,12.61-0.22,18.25,0.08c3.5,0.18,5.03-1.29,6.16-4.32
			c2.67-7.11,5.79-14.05,8.38-21.19c1.11-3.04,2.78-3.9,5.89-3.86c13.49,0.15,26.98,0.14,40.47,0c2.93-0.03,4.49,0.84,5.54,3.65
			c2.71,7.27,5.68,14.44,8.69,21.6c0.6,1.42,1.74,3.66,2.73,3.7c6.86,0.32,13.73,0.17,21.39,0.17
			c-19.69-43.84-38.92-86.67-58.72-130.76C72.58,64.22,53.35,107.07,33.65,150.94z"/>
		<path class="st0" d="M76.14,102.92c5.32-12.71,10.54-25.18,16.29-38.91c5.73,13.65,10.91,26.01,16.32,38.91
			C97.73,102.92,87.29,102.92,76.14,102.92z"/>
	</g>
</g>
</svg>
