<?xml version="1.0" encoding="utf-8"?>
<!-- Generator: Adobe Illustrator 24.0.0, SVG Export Plug-In . SVG Version: 6.00 Build 0)  -->
<svg version="1.1" id="Layer_1" xmlns="http://www.w3.org/2000/svg" xmlns:xlink="http://www.w3.org/1999/xlink" x="0px" y="0px"
	 viewBox="0 0 56.69 56.69" style="enable-background:new 0 0 56.69 56.69;" xml:space="preserve">
<style type="text/css">
	.st0{fill:#A1A3A6;}
</style>
<g>
	<g>
		<path class="st0" d="M41.65,28.6c-0.06-6.23,5.08-9.22,5.31-9.37c-2.89-4.23-7.4-4.81-9-4.87c-3.83-0.39-7.48,2.26-9.42,2.26
			c-1.94,0-4.94-2.2-8.12-2.14c-4.18,0.06-8.03,2.43-10.18,6.17c-4.34,7.53-1.11,18.68,3.12,24.79c2.07,2.99,4.53,6.35,7.77,6.22
			c3.12-0.12,4.29-2.02,8.06-2.02s4.83,2.02,8.12,1.95c3.35-0.06,5.48-3.04,7.53-6.04c2.37-3.47,3.35-6.83,3.41-7
			C48.18,38.51,41.72,36.04,41.65,28.6z"/>
		<path class="st0" d="M35.46,10.31c1.72-2.08,2.88-4.97,2.56-7.86c-2.47,0.1-5.47,1.64-7.25,3.72c-1.59,1.85-2.98,4.78-2.61,7.61
			C30.92,14.01,33.74,12.39,35.46,10.31z"/>
	</g>
</g>
</svg>
