<?xml version="1.0" encoding="utf-8"?>
<!-- Generator: Adobe Illustrator 24.0.0, SVG Export Plug-In . SVG Version: 6.00 Build 0)  -->
<svg version="1.1" id="Layer_1" xmlns="http://www.w3.org/2000/svg" xmlns:xlink="http://www.w3.org/1999/xlink" x="0px" y="0px"
	 viewBox="0 0 24 24" style="enable-background:new 0 0 24 24;" xml:space="preserve">
<style type="text/css">
	.st0{fill:#DB0094;}
</style>
<title></title>
<path class="st0" d="M14.05,2.75l4.94,2.85c0.82-0.86,2.17-0.89,3.03-0.08c0.15,0.14,0.27,0.3,0.38,0.48
	c0.59,1.03,0.23,2.34-0.8,2.93c-0.17,0.1-0.36,0.18-0.56,0.22v5.7c1.15,0.27,1.85,1.42,1.58,2.57c-0.05,0.2-0.13,0.4-0.23,0.58
	c-0.59,1.02-1.9,1.37-2.93,0.78c-0.2-0.11-0.38-0.26-0.53-0.43l-4.91,2.83c0.37,1.12-0.24,2.33-1.36,2.71
	C12.45,23.96,12.23,24,12,24c-1.18,0-2.14-0.95-2.14-2.14c0-0.2,0.03-0.41,0.09-0.61l-4.94-2.85c-0.82,0.85-2.17,0.89-3.03,0.07
	c-0.85-0.82-0.89-2.17-0.07-3.03c0.28-0.3,0.65-0.51,1.04-0.6l0-5.7C1.81,8.87,1.1,7.72,1.38,6.57C1.43,6.37,1.5,6.18,1.6,6
	c0.59-1.02,1.9-1.37,2.93-0.78c0.18,0.1,0.34,0.23,0.48,0.38l4.94-2.85c-0.34-1.13,0.31-2.32,1.44-2.66C11.59,0.03,11.79,0,12,0
	c1.18,0,2.14,0.95,2.14,2.13C14.14,2.34,14.11,2.55,14.05,2.75z M13.54,3.63c-0.02,0.02-0.04,0.04-0.06,0.06l6.46,11.19
	c0.03-0.01,0.06-0.02,0.08-0.02V9.15c-1.15-0.28-1.84-1.44-1.56-2.59c0.01-0.02,0.01-0.05,0.02-0.07
	C18.48,6.49,13.54,3.63,13.54,3.63z M10.52,3.69l-0.06-0.06L5.51,6.48C5.84,7.61,5.19,8.8,4.05,9.12C4.03,9.13,4,9.14,3.98,9.15
	v5.71l0.08,0.02L10.52,3.69C10.52,3.69,10.52,3.69,10.52,3.69z M12.6,4.19c-0.39,0.11-0.8,0.11-1.19,0L4.94,15.38
	c0.29,0.28,0.5,0.65,0.6,1.04h12.91c0.1-0.4,0.31-0.76,0.6-1.04C19.06,15.38,12.6,4.19,12.6,4.19z M13.58,20.42l4.91-2.84
	c-0.01-0.05-0.03-0.09-0.04-0.14H5.54l-0.02,0.08l4.94,2.85c0.39-0.4,0.93-0.65,1.54-0.65C12.63,19.72,13.19,19.99,13.58,20.42z"/>
</svg>
