<?xml version="1.0" encoding="utf-8"?>
<!-- Generator: Adobe Illustrator 24.0.0, SVG Export Plug-In . SVG Version: 6.00 Build 0)  -->
<svg version="1.1" id="Layer_1" xmlns="http://www.w3.org/2000/svg" xmlns:xlink="http://www.w3.org/1999/xlink" x="0px" y="0px"
	 viewBox="0 0 429.42 483.76" style="enable-background:new 0 0 429.42 483.76;" xml:space="preserve">
<style type="text/css">
	.st0{fill:#83CD29;}
</style>
<g>
	<path class="st0" d="M129.58,438.69c3.66-1.59,5.88-2.52,8.07-3.51c7.09-3.2,14.06-6.69,21.3-9.49c2.43-0.94,6.1-1.16,8.22,0.03
		c13.43,7.53,26.64,15.47,39.8,23.47c4.08,2.48,7.56,3.88,12.33,1.07c21.72-12.82,43.66-25.27,65.49-37.91
		c32.89-19.05,65.62-38.37,98.67-57.12c17.24-9.78,13.99-7.63,14.04-24.66c0.17-62.09-0.01-124.19,0.19-186.28
		c0.02-6.48-2.08-10.2-7.82-13.4c-24.33-13.59-48.38-27.7-72.52-41.63c-29.9-17.25-60.06-34.08-89.55-52
		c-9.74-5.92-16.88-6.36-26.79-0.1c-22.99,14.52-46.9,27.58-70.49,41.15c-30.18,17.36-60.36,34.73-90.65,51.89
		c-6.19,3.51-8.97,7.57-8.93,15.29c0.39,64.76,0.27,129.52,0.13,194.28c-0.01,5.24,1.42,8.56,6.19,11.21
		c16.38,9.08,32.09,19.48,48.88,27.69c18.94,9.26,35.4,1.07,38.89-15.26c1.9-8.9,0.56-18.51,0.57-27.8
		c0.04-25.54,0.03-51.07,0.02-76.61c-0.02-28.71-0.06-57.41-0.09-86.12c0-4.99,0.04-9.97,0.04-14.96c0-4.32,2.21-6.42,6.45-6.44
		c5.83-0.03,11.65-0.02,17.48-0.01c7.29,0.01,8.49,1.17,8.49,8.29c0.01,43.62,0.01,87.23,0,130.85c0,23.64,0.28,47.28-0.14,70.92
		c-0.21,12.02-2.67,23.76-10.07,33.77c-8.31,11.25-19.86,16.7-33.51,18.17c-19.43,2.1-37.13-2.91-53.71-12.88
		c-15.2-9.14-30.89-17.49-45.74-27.16c-9.81-6.39-14.77-16.49-14.78-28.43c-0.06-69.09-0.07-138.18,0.01-207.26
		c0.02-13.35,6.18-23.87,17.45-30.56c31.09-18.44,62.46-36.39,93.74-54.51c25.55-14.8,51.4-29.09,76.59-44.47
		c19.12-11.67,36.5-10.49,55.29,1.26c26.15,16.36,53.33,31.08,80.04,46.55c29.55,17.12,59.12,34.18,88.56,51.49
		c12.06,7.09,17.35,18.46,17.51,32.04c0.35,29.22,0.37,58.44,0.37,87.65c0,24.62-0.24,49.24-0.32,73.86
		c-0.04,12.81-0.18,25.62,0.1,38.42c0.38,17.61-7.04,30.39-22.4,39.01c-19.23,10.79-38.27,21.93-57.38,32.95
		c-38.8,22.39-77.46,45.02-116.45,67.06c-12.44,7.03-25.72,7.18-38.46-0.31c-19.04-11.19-38.06-22.41-57.06-33.69
		C135.28,443.06,133.14,441.26,129.58,438.69z"/>
	<path class="st0" d="M265.46,146.44c14.09-0.59,30.54,1.39,46.18,7.38c20.66,7.92,32.87,23.15,37.19,44.97
		c2.57,12.97,2.05,13.99-11.17,13.99c-4.99,0-9.99-0.12-14.98,0.03c-3.17,0.09-4.71-1.02-5.48-4.29
		c-1.91-8.19-5.45-15.54-11.84-21.41c-7.62-7-17.21-8.82-26.72-9.23c-12.85-0.56-25.81-0.07-38.64,0.98
		c-7.84,0.64-14.92,4.19-20.22,10.6c-6.35,7.69-5.37,20.86,2.58,24.85c5.39,2.71,11.34,4.8,17.27,5.89
		c25.05,4.6,50.22,8.51,75.26,13.12c10.38,1.91,19.95,6.29,28.23,13.03c8.16,6.65,12.21,15.79,13.42,25.86
		c1.99,16.53-0.4,32.25-12.01,45.25c-8.55,9.57-19.53,15.48-31.68,18.95c-21.29,6.09-42.99,7.04-65,4.69
		c-14.8-1.58-28.92-4.77-42.41-11.32c-18.91-9.18-32.33-32.54-29.52-53.24c0.21-1.56,2.76-3.9,4.34-3.99
		c7.47-0.43,14.98-0.4,22.45-0.06c1.52,0.07,3.69,1.9,4.28,3.41c1.5,3.83,2.03,8.02,3.37,11.92c4.39,12.73,14.64,18.75,26.82,21.19
		c19.97,3.99,40.16,4.41,60.2,0.12c4.63-0.99,9.2-2.89,13.41-5.1c9.56-5.01,14.32-17.37,10.35-27.36c-1.12-2.83-3.78-5.51-6.42-7.18
		c-10.36-6.54-22.31-8.08-34.11-9.78c-20.96-3.02-42.28-3.75-62.71-9.99c-13.85-4.23-26.07-10.76-32.49-24.76
		c-10.37-22.6-2.95-51.92,19.04-65.22C222.52,148.84,242.29,146.22,265.46,146.44z"/>
</g>
</svg>
