<?xml version="1.0" encoding="utf-8"?>
<!-- Generator: Adobe Illustrator 24.0.0, SVG Export Plug-In . SVG Version: 6.00 Build 0)  -->
<svg version="1.1" id="Layer_1" xmlns="http://www.w3.org/2000/svg" xmlns:xlink="http://www.w3.org/1999/xlink" x="0px" y="0px"
	 viewBox="0 0 185.03 196.37" style="enable-background:new 0 0 185.03 196.37;" xml:space="preserve">
<style type="text/css">
	.st0{fill:#48E23B;}
	.st1{fill:#28B70F;}
</style>
<path class="st0" d="M147.21,191.65H38.44c-20.85,0-37.82-16.97-37.82-37.82V45.06c0-20.85,16.97-37.82,37.82-37.82h108.78
	c20.85,0,37.82,16.97,37.82,37.82v108.78C185.03,174.69,168.07,191.65,147.21,191.65z"/>
<path class="st1" d="M147.21,7.24H92.82v184.42h54.39c20.85,0,37.82-16.97,37.82-37.82V45.06C185.03,24.2,168.07,7.24,147.21,7.24z"
	/>
<g>
	<path class="st1" d="M107.3,125.16c-1.87,0.58-3.84,0.86-5.91,0.86c-6.41,0-9.8-3.53-9.8-9.29V95.05h-4.97v-7.42h4.97V75.38h9.65
		v12.25h7.92v7.42h-7.92v18.44c0,2.61,1.48,3.67,3.6,3.67c2.02,0,4.68-1.13,5.26-1.37l1.95,7.64
		C110.76,124.01,109.18,124.59,107.3,125.16z"/>
</g>
<g>
	<polygon class="st0" points="137.7,125.38 127.26,125.38 113.35,87.63 123.3,87.63 132.88,117.53 142.53,87.63 151.61,87.63 	"/>
	<path class="st0" d="M110.11,115.8c-0.58,0.24-3.24,1.37-5.26,1.37c-2.13,0-3.6-1.06-3.6-3.67V95.05h7.92v-7.42h-7.92V75.38h-8.43
		v46.51c1.51,2.63,4.4,4.13,8.57,4.13c2.06,0,4.03-0.29,5.91-0.86c1.87-0.58,3.46-1.15,4.75-1.73L110.11,115.8z"/>
</g>
<g>
	<path class="st1" d="M41.82,88.07c-1.79,0-3.24,1.45-3.24,3.24v12.98c0,1.79,1.45,3.24,3.24,3.24s3.24-1.45,3.24-3.24V91.32
		C45.06,89.53,43.61,88.07,41.82,88.07z"/>
	<path class="st1" d="M77.5,88.07c-1.79,0-3.24,1.45-3.24,3.24v12.98c0,1.79,1.45,3.24,3.24,3.24c1.79,0,3.24-1.45,3.24-3.24V91.32
		C80.74,89.53,79.29,88.07,77.5,88.07z"/>
	<path class="st1" d="M46.68,114.02h3.24v8.11c0,1.79,1.45,3.24,3.24,3.24c1.79,0,3.24-1.45,3.24-3.24v-8.11h6.49v8.11
		c0,1.79,1.45,3.24,3.24,3.24c1.79,0,3.24-1.45,3.24-3.24v-8.11h3.24V89.7H46.68V114.02z"/>
	<path class="st1" d="M67.32,77.62l1.67-2.89c0.23-0.39,0.09-0.88-0.3-1.11c-0.39-0.23-0.88-0.09-1.11,0.3l-1.62,2.81
		c-1.87-1.04-4.01-1.63-6.3-1.63c-2.29,0-4.43,0.6-6.3,1.63l-1.63-2.82c-0.23-0.39-0.72-0.52-1.11-0.3
		c-0.39,0.22-0.52,0.72-0.3,1.11L52,77.62c-3.22,2.36-5.32,6.16-5.32,10.46h25.95C72.64,83.78,70.54,79.98,67.32,77.62z
		 M54.79,83.21c-0.9,0-1.62-0.73-1.62-1.62c0-0.9,0.72-1.62,1.62-1.62s1.62,0.73,1.62,1.62C56.42,82.48,55.69,83.21,54.79,83.21z
		 M64.53,83.21c-0.9,0-1.62-0.73-1.62-1.62c0-0.9,0.73-1.62,1.62-1.62c0.9,0,1.62,0.73,1.62,1.62
		C66.15,82.48,65.42,83.21,64.53,83.21z"/>
</g>
</svg>
